<mxfile host="app.diagrams.net" modified="2023-05-30T10:59:19.010Z" agent="Mozilla/5.0 (Windows NT 10.0; Win64; x64) AppleWebKit/537.36 (KHTML, like Gecko) Chrome/113.0.0.0 Safari/537.36 Edg/113.0.1774.57" etag="URZcWPqqy2dbs70WX2VF" version="21.3.5" type="github">
  <diagram id="JUuMGI50Q7hTwMUo-t8g" name="Page-1">
    <mxGraphModel dx="830" dy="458" grid="1" gridSize="10" guides="1" tooltips="1" connect="1" arrows="1" fold="1" page="1" pageScale="1" pageWidth="1100" pageHeight="850" math="0" shadow="0">
      <root>
        <mxCell id="0" />
        <mxCell id="1" parent="0" />
        <mxCell id="ItMtHnTAJjyY1fhj2TUV-86" style="edgeStyle=orthogonalEdgeStyle;rounded=0;orthogonalLoop=1;jettySize=auto;html=1;exitX=0.5;exitY=1;exitDx=0;exitDy=0;entryX=0.5;entryY=0;entryDx=0;entryDy=0;shape=flexArrow;fillColor=#000000;" edge="1" source="ItMtHnTAJjyY1fhj2TUV-87" target="ItMtHnTAJjyY1fhj2TUV-97" parent="1">
          <mxGeometry relative="1" as="geometry" />
        </mxCell>
        <mxCell id="ItMtHnTAJjyY1fhj2TUV-87" value="&lt;font style=&quot;font-size: 18px;&quot; face=&quot;Times New Roman&quot;&gt;&lt;b style=&quot;&quot;&gt;Start&lt;/b&gt;&lt;/font&gt;" style="ellipse;whiteSpace=wrap;html=1;container=0;rounded=1;strokeColor=default;fontFamily=Helvetica;fontSize=12;fontColor=default;fillColor=default;" vertex="1" parent="1">
          <mxGeometry x="620.8700000000001" y="80" width="60" height="27.78" as="geometry" />
        </mxCell>
        <mxCell id="ItMtHnTAJjyY1fhj2TUV-88" style="edgeStyle=orthogonalEdgeStyle;rounded=0;orthogonalLoop=1;jettySize=auto;html=1;exitX=0.5;exitY=1;exitDx=0;exitDy=0;entryX=0.5;entryY=0;entryDx=0;entryDy=0;shape=flexArrow;fillColor=#000000;" edge="1" source="ItMtHnTAJjyY1fhj2TUV-89" parent="1">
          <mxGeometry relative="1" as="geometry">
            <mxPoint x="650.8700000000001" y="309.28" as="targetPoint" />
          </mxGeometry>
        </mxCell>
        <mxCell id="ItMtHnTAJjyY1fhj2TUV-89" value="&lt;font face=&quot;Times New Roman&quot; style=&quot;font-size: 18px;&quot;&gt;&lt;b&gt;Send Command&lt;/b&gt;&lt;/font&gt;" style="whiteSpace=wrap;html=1;container=0;rounded=0;strokeColor=default;fontFamily=Helvetica;fontSize=12;fontColor=default;fillColor=default;" vertex="1" parent="1">
          <mxGeometry x="605.9599999999999" y="259.28" width="88.94" height="40" as="geometry" />
        </mxCell>
        <mxCell id="ItMtHnTAJjyY1fhj2TUV-91" value="&lt;font face=&quot;Times New Roman&quot; style=&quot;font-size: 24px;&quot;&gt;&lt;b style=&quot;&quot;&gt;Gateway Side&lt;/b&gt;&lt;/font&gt;" style="text;html=1;strokeColor=none;fillColor=none;align=center;verticalAlign=middle;whiteSpace=wrap;rounded=0;container=0;" vertex="1" parent="1">
          <mxGeometry x="578.1800000000001" y="40" width="145.38" height="30" as="geometry" />
        </mxCell>
        <mxCell id="ItMtHnTAJjyY1fhj2TUV-96" style="edgeStyle=orthogonalEdgeStyle;rounded=0;orthogonalLoop=1;jettySize=auto;html=1;exitX=0.5;exitY=1;exitDx=0;exitDy=0;entryX=0.5;entryY=0;entryDx=0;entryDy=0;shape=flexArrow;fillColor=#000000;" edge="1" source="ItMtHnTAJjyY1fhj2TUV-97" target="ItMtHnTAJjyY1fhj2TUV-99" parent="1">
          <mxGeometry relative="1" as="geometry" />
        </mxCell>
        <mxCell id="ItMtHnTAJjyY1fhj2TUV-97" value="&lt;font style=&quot;font-size: 18px;&quot; face=&quot;Times New Roman&quot;&gt;&lt;b&gt;Connect&lt;/b&gt;&lt;/font&gt;" style="whiteSpace=wrap;html=1;container=0;rounded=0;strokeColor=default;fontFamily=Helvetica;fontSize=12;fontColor=default;fillColor=default;" vertex="1" parent="1">
          <mxGeometry x="595.87" y="118" width="110" height="32" as="geometry" />
        </mxCell>
        <mxCell id="ItMtHnTAJjyY1fhj2TUV-98" style="edgeStyle=orthogonalEdgeStyle;rounded=0;orthogonalLoop=1;jettySize=auto;html=1;exitX=0.5;exitY=1;exitDx=0;exitDy=0;entryX=0.5;entryY=0;entryDx=0;entryDy=0;shape=flexArrow;fillColor=#000000;" edge="1" source="ItMtHnTAJjyY1fhj2TUV-99" target="ItMtHnTAJjyY1fhj2TUV-89" parent="1">
          <mxGeometry relative="1" as="geometry" />
        </mxCell>
        <mxCell id="ItMtHnTAJjyY1fhj2TUV-99" value="&lt;b style=&quot;border-color: var(--border-color); font-family: &amp;quot;Times New Roman&amp;quot;; font-size: 18px;&quot;&gt;Retrieve Description of Device&lt;/b&gt;" style="whiteSpace=wrap;html=1;container=0;rounded=0;strokeColor=default;fontFamily=Helvetica;fontSize=12;fontColor=default;fillColor=default;" vertex="1" parent="1">
          <mxGeometry x="595.87" y="160" width="109.13" height="59.28" as="geometry" />
        </mxCell>
        <mxCell id="ItMtHnTAJjyY1fhj2TUV-100" value="&lt;font style=&quot;font-size: 18px;&quot; face=&quot;Times New Roman&quot;&gt;&lt;b style=&quot;&quot;&gt;End&lt;/b&gt;&lt;/font&gt;" style="ellipse;whiteSpace=wrap;html=1;container=0;rounded=1;strokeColor=default;fontFamily=Helvetica;fontSize=12;fontColor=default;fillColor=default;" vertex="1" parent="1">
          <mxGeometry x="620.8700000000001" y="459.28" width="60" height="27.78" as="geometry" />
        </mxCell>
        <mxCell id="ItMtHnTAJjyY1fhj2TUV-102" value="&lt;font face=&quot;Times New Roman&quot; style=&quot;font-size: 24px;&quot;&gt;&lt;b style=&quot;&quot;&gt;Device Side&lt;/b&gt;&lt;/font&gt;" style="text;html=1;strokeColor=none;fillColor=none;align=center;verticalAlign=middle;whiteSpace=wrap;rounded=0;container=0;" vertex="1" parent="1">
          <mxGeometry x="759.7500000000001" y="40" width="128.63" height="30" as="geometry" />
        </mxCell>
        <mxCell id="ItMtHnTAJjyY1fhj2TUV-195" style="edgeStyle=none;rounded=0;orthogonalLoop=1;jettySize=auto;html=1;exitX=0.5;exitY=1;exitDx=0;exitDy=0;entryX=0.5;entryY=0;entryDx=0;entryDy=0;" edge="1" parent="1" source="ItMtHnTAJjyY1fhj2TUV-103" target="ItMtHnTAJjyY1fhj2TUV-146">
          <mxGeometry relative="1" as="geometry" />
        </mxCell>
        <mxCell id="ItMtHnTAJjyY1fhj2TUV-103" value="&lt;font style=&quot;font-size: 18px;&quot; face=&quot;Times New Roman&quot;&gt;&lt;b style=&quot;&quot;&gt;Start&lt;/b&gt;&lt;/font&gt;" style="ellipse;whiteSpace=wrap;html=1;container=0;rounded=1;strokeColor=default;fontFamily=Helvetica;fontSize=12;fontColor=default;fillColor=default;" vertex="1" parent="1">
          <mxGeometry x="793.8700000000001" y="80" width="60" height="27.78" as="geometry" />
        </mxCell>
        <mxCell id="ItMtHnTAJjyY1fhj2TUV-104" value="&lt;font style=&quot;font-size: 18px;&quot; face=&quot;Times New Roman&quot;&gt;&lt;b style=&quot;&quot;&gt;End&lt;/b&gt;&lt;/font&gt;" style="ellipse;whiteSpace=wrap;html=1;container=0;rounded=1;strokeColor=default;fontFamily=Helvetica;fontSize=12;fontColor=default;fillColor=default;" vertex="1" parent="1">
          <mxGeometry x="793.8700000000001" y="459.28" width="60" height="27.78" as="geometry" />
        </mxCell>
        <mxCell id="ItMtHnTAJjyY1fhj2TUV-119" value="" style="group" vertex="1" connectable="0" parent="1">
          <mxGeometry x="110" y="20" width="400" height="540" as="geometry" />
        </mxCell>
        <mxCell id="ItMtHnTAJjyY1fhj2TUV-120" value="" style="rounded=0;whiteSpace=wrap;html=1;container=0;" vertex="1" parent="ItMtHnTAJjyY1fhj2TUV-119">
          <mxGeometry width="400" height="540" as="geometry" />
        </mxCell>
        <mxCell id="ItMtHnTAJjyY1fhj2TUV-121" value="&lt;font face=&quot;Times New Roman&quot; style=&quot;font-size: 14px;&quot;&gt;Wait Response&lt;/font&gt;" style="whiteSpace=wrap;html=1;container=0;rounded=0;strokeColor=default;fontFamily=Helvetica;fontSize=12;fontColor=default;fillColor=default;" vertex="1" parent="ItMtHnTAJjyY1fhj2TUV-119">
          <mxGeometry x="32.16363636363646" y="335.5714285714285" width="109.0909090909091" height="38.57142857142856" as="geometry" />
        </mxCell>
        <mxCell id="ItMtHnTAJjyY1fhj2TUV-122" value="&lt;font style=&quot;font-size: 14px;&quot; face=&quot;Times New Roman&quot;&gt;Start&lt;/font&gt;" style="ellipse;whiteSpace=wrap;html=1;container=0;rounded=1;strokeColor=default;fontFamily=Helvetica;fontSize=12;fontColor=default;fillColor=default;" vertex="1" parent="ItMtHnTAJjyY1fhj2TUV-119">
          <mxGeometry x="27.272727272727273" y="67.5" width="118.18181818181817" height="43.392857142857146" as="geometry" />
        </mxCell>
        <mxCell id="ItMtHnTAJjyY1fhj2TUV-123" value="&lt;font style=&quot;font-size: 14px;&quot; face=&quot;Times New Roman&quot;&gt;Connect&lt;/font&gt;" style="whiteSpace=wrap;html=1;container=0;rounded=0;strokeColor=default;fontFamily=Helvetica;fontSize=12;fontColor=default;fillColor=default;" vertex="1" parent="ItMtHnTAJjyY1fhj2TUV-119">
          <mxGeometry x="31.81818181818182" y="135" width="109.0909090909091" height="38.57142857142856" as="geometry" />
        </mxCell>
        <mxCell id="ItMtHnTAJjyY1fhj2TUV-124" value="" style="edgeStyle=orthogonalEdgeStyle;rounded=0;orthogonalLoop=1;jettySize=auto;html=1;" edge="1" parent="ItMtHnTAJjyY1fhj2TUV-119" source="ItMtHnTAJjyY1fhj2TUV-122" target="ItMtHnTAJjyY1fhj2TUV-123">
          <mxGeometry relative="1" as="geometry" />
        </mxCell>
        <mxCell id="ItMtHnTAJjyY1fhj2TUV-125" style="edgeStyle=orthogonalEdgeStyle;rounded=0;orthogonalLoop=1;jettySize=auto;html=1;entryX=0.5;entryY=0;entryDx=0;entryDy=0;" edge="1" parent="ItMtHnTAJjyY1fhj2TUV-119" source="ItMtHnTAJjyY1fhj2TUV-121" target="ItMtHnTAJjyY1fhj2TUV-133">
          <mxGeometry relative="1" as="geometry">
            <mxPoint x="86.70909090909102" y="398.25" as="targetPoint" />
          </mxGeometry>
        </mxCell>
        <mxCell id="ItMtHnTAJjyY1fhj2TUV-126" style="edgeStyle=orthogonalEdgeStyle;rounded=0;orthogonalLoop=1;jettySize=auto;html=1;entryX=0.5;entryY=0;entryDx=0;entryDy=0;" edge="1" parent="ItMtHnTAJjyY1fhj2TUV-119" source="ItMtHnTAJjyY1fhj2TUV-127" target="ItMtHnTAJjyY1fhj2TUV-121">
          <mxGeometry relative="1" as="geometry" />
        </mxCell>
        <mxCell id="ItMtHnTAJjyY1fhj2TUV-127" value="&lt;font style=&quot;font-size: 14px;&quot; face=&quot;Times New Roman&quot;&gt;Send Command&lt;/font&gt;" style="whiteSpace=wrap;html=1;container=0;rounded=0;strokeColor=default;fontFamily=Helvetica;fontSize=12;fontColor=default;fillColor=default;" vertex="1" parent="ItMtHnTAJjyY1fhj2TUV-119">
          <mxGeometry x="32.16363636363646" y="270" width="109.0909090909091" height="38.57142857142856" as="geometry" />
        </mxCell>
        <mxCell id="ItMtHnTAJjyY1fhj2TUV-128" value="&lt;font face=&quot;Times New Roman&quot; style=&quot;font-size: 18px;&quot;&gt;&lt;b style=&quot;&quot;&gt;Home Gateway&lt;/b&gt;&lt;/font&gt;" style="text;html=1;strokeColor=none;fillColor=none;align=center;verticalAlign=middle;whiteSpace=wrap;rounded=0;container=0;" vertex="1" parent="ItMtHnTAJjyY1fhj2TUV-119">
          <mxGeometry x="25.290909090909242" y="19.28571428571428" width="122.38181818181818" height="28.928571428571427" as="geometry" />
        </mxCell>
        <mxCell id="ItMtHnTAJjyY1fhj2TUV-129" value="&lt;font face=&quot;Times New Roman&quot; style=&quot;font-size: 18px;&quot;&gt;&lt;b style=&quot;&quot;&gt;Device&lt;/b&gt;&lt;/font&gt;" style="text;html=1;strokeColor=none;fillColor=none;align=center;verticalAlign=middle;whiteSpace=wrap;rounded=0;container=0;" vertex="1" parent="ItMtHnTAJjyY1fhj2TUV-119">
          <mxGeometry x="268.1818181818182" y="19.28571428571428" width="109.0909090909091" height="28.928571428571427" as="geometry" />
        </mxCell>
        <mxCell id="ItMtHnTAJjyY1fhj2TUV-130" value="" style="edgeStyle=orthogonalEdgeStyle;rounded=0;orthogonalLoop=1;jettySize=auto;html=1;" edge="1" parent="ItMtHnTAJjyY1fhj2TUV-119" source="ItMtHnTAJjyY1fhj2TUV-131" target="ItMtHnTAJjyY1fhj2TUV-127">
          <mxGeometry relative="1" as="geometry" />
        </mxCell>
        <mxCell id="ItMtHnTAJjyY1fhj2TUV-131" value="&lt;font style=&quot;font-size: 14px;&quot; face=&quot;Times New Roman&quot;&gt;Read Description&lt;/font&gt;" style="whiteSpace=wrap;html=1;container=0;rounded=0;strokeColor=default;fontFamily=Helvetica;fontSize=12;fontColor=default;fillColor=default;" vertex="1" parent="ItMtHnTAJjyY1fhj2TUV-119">
          <mxGeometry x="31.936363636363733" y="202.5" width="109.0909090909091" height="38.57142857142856" as="geometry" />
        </mxCell>
        <mxCell id="ItMtHnTAJjyY1fhj2TUV-132" style="edgeStyle=orthogonalEdgeStyle;rounded=0;orthogonalLoop=1;jettySize=auto;html=1;entryX=0.5;entryY=0;entryDx=0;entryDy=0;fontFamily=Helvetica;fontSize=12;fontColor=default;" edge="1" parent="ItMtHnTAJjyY1fhj2TUV-119" source="ItMtHnTAJjyY1fhj2TUV-123" target="ItMtHnTAJjyY1fhj2TUV-131">
          <mxGeometry relative="1" as="geometry">
            <mxPoint x="86.36363636363637" y="202.5" as="targetPoint" />
          </mxGeometry>
        </mxCell>
        <mxCell id="ItMtHnTAJjyY1fhj2TUV-133" value="&lt;font style=&quot;font-size: 14px;&quot; face=&quot;Times New Roman&quot;&gt;End&lt;/font&gt;" style="ellipse;whiteSpace=wrap;html=1;container=0;rounded=1;strokeColor=default;fontFamily=Helvetica;fontSize=12;fontColor=default;fillColor=default;" vertex="1" parent="ItMtHnTAJjyY1fhj2TUV-119">
          <mxGeometry x="27.61818181818192" y="458.0357142857143" width="118.18181818181817" height="43.392857142857146" as="geometry" />
        </mxCell>
        <mxCell id="ItMtHnTAJjyY1fhj2TUV-134" value="&lt;font style=&quot;font-size: 14px;&quot; face=&quot;Times New Roman&quot;&gt;Send ACK/Response&lt;/font&gt;" style="whiteSpace=wrap;html=1;container=0;rounded=0;strokeColor=default;fontFamily=Helvetica;fontSize=12;fontColor=default;fillColor=default;" vertex="1" parent="ItMtHnTAJjyY1fhj2TUV-119">
          <mxGeometry x="268.3545454545455" y="335.5714285714285" width="109.0909090909091" height="38.57142857142856" as="geometry" />
        </mxCell>
        <mxCell id="ItMtHnTAJjyY1fhj2TUV-135" value="&lt;font style=&quot;font-size: 14px;&quot; face=&quot;Times New Roman&quot;&gt;Start&lt;/font&gt;" style="ellipse;whiteSpace=wrap;html=1;container=0;rounded=1;strokeColor=default;fontFamily=Helvetica;fontSize=12;fontColor=default;fillColor=default;" vertex="1" parent="ItMtHnTAJjyY1fhj2TUV-119">
          <mxGeometry x="263.4636363636363" y="67.5" width="118.18181818181817" height="43.392857142857146" as="geometry" />
        </mxCell>
        <mxCell id="ItMtHnTAJjyY1fhj2TUV-136" value="&lt;font style=&quot;font-size: 14px;&quot; face=&quot;Times New Roman&quot;&gt;Sleep and Wait Command&lt;/font&gt;" style="whiteSpace=wrap;html=1;container=0;rounded=0;strokeColor=default;fontFamily=Helvetica;fontSize=12;fontColor=default;fillColor=default;" vertex="1" parent="ItMtHnTAJjyY1fhj2TUV-119">
          <mxGeometry x="268.00909090909084" y="135" width="109.0909090909091" height="38.57142857142856" as="geometry" />
        </mxCell>
        <mxCell id="ItMtHnTAJjyY1fhj2TUV-137" value="" style="edgeStyle=orthogonalEdgeStyle;rounded=0;orthogonalLoop=1;jettySize=auto;html=1;" edge="1" parent="ItMtHnTAJjyY1fhj2TUV-119" source="ItMtHnTAJjyY1fhj2TUV-135" target="ItMtHnTAJjyY1fhj2TUV-136">
          <mxGeometry relative="1" as="geometry" />
        </mxCell>
        <mxCell id="ItMtHnTAJjyY1fhj2TUV-138" value="&lt;font style=&quot;font-size: 14px;&quot; face=&quot;Times New Roman&quot;&gt;Sleep&lt;/font&gt;" style="whiteSpace=wrap;html=1;container=0;rounded=0;strokeColor=default;fontFamily=Helvetica;fontSize=12;fontColor=default;fillColor=default;" vertex="1" parent="ItMtHnTAJjyY1fhj2TUV-119">
          <mxGeometry x="268.3545454545455" y="398.25" width="109.0909090909091" height="38.57142857142856" as="geometry" />
        </mxCell>
        <mxCell id="ItMtHnTAJjyY1fhj2TUV-139" style="edgeStyle=orthogonalEdgeStyle;rounded=0;orthogonalLoop=1;jettySize=auto;html=1;entryX=0.5;entryY=0;entryDx=0;entryDy=0;" edge="1" parent="ItMtHnTAJjyY1fhj2TUV-119" source="ItMtHnTAJjyY1fhj2TUV-134" target="ItMtHnTAJjyY1fhj2TUV-138">
          <mxGeometry relative="1" as="geometry" />
        </mxCell>
        <mxCell id="ItMtHnTAJjyY1fhj2TUV-140" style="edgeStyle=orthogonalEdgeStyle;rounded=0;orthogonalLoop=1;jettySize=auto;html=1;entryX=0.5;entryY=0;entryDx=0;entryDy=0;" edge="1" parent="ItMtHnTAJjyY1fhj2TUV-119" source="ItMtHnTAJjyY1fhj2TUV-141" target="ItMtHnTAJjyY1fhj2TUV-134">
          <mxGeometry relative="1" as="geometry" />
        </mxCell>
        <mxCell id="ItMtHnTAJjyY1fhj2TUV-141" value="&lt;font style=&quot;font-size: 14px;&quot; face=&quot;Times New Roman&quot;&gt;Receive and Execute Command&lt;/font&gt;" style="whiteSpace=wrap;html=1;container=0;rounded=0;strokeColor=default;fontFamily=Helvetica;fontSize=12;fontColor=default;fillColor=default;" vertex="1" parent="ItMtHnTAJjyY1fhj2TUV-119">
          <mxGeometry x="268.3545454545455" y="270" width="109.0909090909091" height="38.57142857142856" as="geometry" />
        </mxCell>
        <mxCell id="ItMtHnTAJjyY1fhj2TUV-142" value="" style="edgeStyle=orthogonalEdgeStyle;rounded=0;orthogonalLoop=1;jettySize=auto;html=1;exitX=0.5;exitY=1;exitDx=0;exitDy=0;" edge="1" parent="ItMtHnTAJjyY1fhj2TUV-119" source="ItMtHnTAJjyY1fhj2TUV-136" target="ItMtHnTAJjyY1fhj2TUV-141">
          <mxGeometry relative="1" as="geometry">
            <mxPoint x="322.6363636363637" y="241.07142857142853" as="sourcePoint" />
          </mxGeometry>
        </mxCell>
        <mxCell id="ItMtHnTAJjyY1fhj2TUV-143" value="&lt;font style=&quot;font-size: 14px;&quot; face=&quot;Times New Roman&quot;&gt;End&lt;/font&gt;" style="ellipse;whiteSpace=wrap;html=1;container=0;rounded=1;strokeColor=default;fontFamily=Helvetica;fontSize=12;fontColor=default;fillColor=default;" vertex="1" parent="ItMtHnTAJjyY1fhj2TUV-119">
          <mxGeometry x="263.80909090909097" y="458.0357142857143" width="118.18181818181817" height="43.392857142857146" as="geometry" />
        </mxCell>
        <mxCell id="ItMtHnTAJjyY1fhj2TUV-144" value="" style="edgeStyle=orthogonalEdgeStyle;rounded=0;orthogonalLoop=1;jettySize=auto;html=1;" edge="1" parent="ItMtHnTAJjyY1fhj2TUV-119" source="ItMtHnTAJjyY1fhj2TUV-138" target="ItMtHnTAJjyY1fhj2TUV-143">
          <mxGeometry relative="1" as="geometry" />
        </mxCell>
        <mxCell id="ItMtHnTAJjyY1fhj2TUV-145" value="" style="endArrow=none;dashed=1;html=1;rounded=0;entryX=0.5;entryY=0;entryDx=0;entryDy=0;exitX=0.5;exitY=1;exitDx=0;exitDy=0;strokeWidth=2;" edge="1" parent="ItMtHnTAJjyY1fhj2TUV-119" source="ItMtHnTAJjyY1fhj2TUV-120" target="ItMtHnTAJjyY1fhj2TUV-120">
          <mxGeometry width="50" height="50" relative="1" as="geometry">
            <mxPoint x="63.63636363636364" y="241.07142857142853" as="sourcePoint" />
            <mxPoint x="109.0909090909091" y="192.85714285714283" as="targetPoint" />
          </mxGeometry>
        </mxCell>
        <mxCell id="ItMtHnTAJjyY1fhj2TUV-196" style="edgeStyle=none;rounded=0;orthogonalLoop=1;jettySize=auto;html=1;exitX=0.5;exitY=1;exitDx=0;exitDy=0;entryX=0.5;entryY=0;entryDx=0;entryDy=0;" edge="1" parent="1" source="ItMtHnTAJjyY1fhj2TUV-146" target="ItMtHnTAJjyY1fhj2TUV-181">
          <mxGeometry relative="1" as="geometry" />
        </mxCell>
        <mxCell id="ItMtHnTAJjyY1fhj2TUV-146" value="&lt;div style=&quot;&quot;&gt;&lt;font face=&quot;Times New Roman&quot; style=&quot;font-size: 18px;&quot;&gt;&lt;b&gt;Sleep and Wait Command&lt;/b&gt;&lt;/font&gt;&lt;br&gt;&lt;/div&gt;" style="whiteSpace=wrap;html=1;container=0;rounded=0;strokeColor=default;fontFamily=Helvetica;fontSize=12;fontColor=default;fillColor=default;" vertex="1" parent="1">
          <mxGeometry x="764.0299999999999" y="118" width="119.69" height="40" as="geometry" />
        </mxCell>
        <mxCell id="ItMtHnTAJjyY1fhj2TUV-187" style="edgeStyle=none;rounded=0;orthogonalLoop=1;jettySize=auto;html=1;exitX=0.5;exitY=1;exitDx=0;exitDy=0;entryX=0.5;entryY=0;entryDx=0;entryDy=0;" edge="1" parent="1" source="ItMtHnTAJjyY1fhj2TUV-181" target="ItMtHnTAJjyY1fhj2TUV-182">
          <mxGeometry relative="1" as="geometry" />
        </mxCell>
        <mxCell id="ItMtHnTAJjyY1fhj2TUV-181" value="&lt;font style=&quot;font-size: 18px;&quot; face=&quot;Times New Roman&quot;&gt;&lt;b style=&quot;&quot;&gt;Receive Command&lt;/b&gt;&lt;/font&gt;" style="whiteSpace=wrap;html=1;container=0;rounded=0;strokeColor=default;fontFamily=Helvetica;fontSize=12;fontColor=default;fillColor=default;" vertex="1" parent="1">
          <mxGeometry x="748.73" y="265.36" width="150.68" height="27.85" as="geometry" />
        </mxCell>
        <mxCell id="ItMtHnTAJjyY1fhj2TUV-188" style="edgeStyle=none;rounded=0;orthogonalLoop=1;jettySize=auto;html=1;exitX=0.5;exitY=1;exitDx=0;exitDy=0;entryX=0.5;entryY=0;entryDx=0;entryDy=0;" edge="1" parent="1" source="ItMtHnTAJjyY1fhj2TUV-182" target="ItMtHnTAJjyY1fhj2TUV-186">
          <mxGeometry relative="1" as="geometry" />
        </mxCell>
        <mxCell id="ItMtHnTAJjyY1fhj2TUV-182" value="&lt;font style=&quot;font-size: 18px;&quot; face=&quot;Times New Roman&quot;&gt;&lt;b&gt;Execute&amp;nbsp;&lt;font style=&quot;&quot;&gt;Command&lt;/font&gt;&lt;/b&gt;&lt;/font&gt;" style="whiteSpace=wrap;html=1;container=0;rounded=0;strokeColor=default;fontFamily=Helvetica;fontSize=12;fontColor=default;fillColor=default;" vertex="1" parent="1">
          <mxGeometry x="748.53" y="310" width="150.68" height="27.85" as="geometry" />
        </mxCell>
        <mxCell id="ItMtHnTAJjyY1fhj2TUV-190" style="edgeStyle=none;rounded=0;orthogonalLoop=1;jettySize=auto;html=1;entryX=0.5;entryY=0;entryDx=0;entryDy=0;" edge="1" parent="1" source="ItMtHnTAJjyY1fhj2TUV-185" target="ItMtHnTAJjyY1fhj2TUV-100">
          <mxGeometry relative="1" as="geometry" />
        </mxCell>
        <mxCell id="ItMtHnTAJjyY1fhj2TUV-185" value="&lt;font face=&quot;Times New Roman&quot; style=&quot;font-size: 18px;&quot;&gt;&lt;b style=&quot;&quot;&gt;Wait &lt;/b&gt;&lt;/font&gt;&lt;b style=&quot;border-color: var(--border-color); font-family: &amp;quot;Times New Roman&amp;quot;; font-size: 18px;&quot;&gt;ACK/&lt;/b&gt;&lt;font face=&quot;Times New Roman&quot; style=&quot;font-size: 18px;&quot;&gt;&lt;b style=&quot;&quot;&gt;Response&lt;/b&gt;&lt;/font&gt;" style="whiteSpace=wrap;html=1;container=0;rounded=0;strokeColor=default;fontFamily=Helvetica;fontSize=12;fontColor=default;fillColor=default;" vertex="1" parent="1">
          <mxGeometry x="589.26" y="310" width="123.22" height="80" as="geometry" />
        </mxCell>
        <mxCell id="ItMtHnTAJjyY1fhj2TUV-189" style="edgeStyle=none;rounded=0;orthogonalLoop=1;jettySize=auto;html=1;entryX=1;entryY=0.75;entryDx=0;entryDy=0;" edge="1" parent="1" source="ItMtHnTAJjyY1fhj2TUV-186" target="ItMtHnTAJjyY1fhj2TUV-185">
          <mxGeometry relative="1" as="geometry" />
        </mxCell>
        <mxCell id="ItMtHnTAJjyY1fhj2TUV-193" style="edgeStyle=none;rounded=0;orthogonalLoop=1;jettySize=auto;html=1;entryX=0.5;entryY=0;entryDx=0;entryDy=0;" edge="1" parent="1" source="ItMtHnTAJjyY1fhj2TUV-186" target="ItMtHnTAJjyY1fhj2TUV-191">
          <mxGeometry relative="1" as="geometry" />
        </mxCell>
        <mxCell id="ItMtHnTAJjyY1fhj2TUV-186" value="&lt;font style=&quot;font-size: 18px;&quot; face=&quot;Times New Roman&quot;&gt;&lt;b&gt;Send ACK/Response&lt;/b&gt;&lt;/font&gt;" style="whiteSpace=wrap;html=1;container=0;rounded=0;strokeColor=default;fontFamily=Helvetica;fontSize=12;fontColor=default;fillColor=default;" vertex="1" parent="1">
          <mxGeometry x="764.03" y="351.43" width="120.48" height="38.57" as="geometry" />
        </mxCell>
        <mxCell id="ItMtHnTAJjyY1fhj2TUV-194" style="edgeStyle=none;rounded=0;orthogonalLoop=1;jettySize=auto;html=1;entryX=0.5;entryY=0;entryDx=0;entryDy=0;" edge="1" parent="1" source="ItMtHnTAJjyY1fhj2TUV-191" target="ItMtHnTAJjyY1fhj2TUV-104">
          <mxGeometry relative="1" as="geometry" />
        </mxCell>
        <mxCell id="ItMtHnTAJjyY1fhj2TUV-191" value="&lt;font style=&quot;font-size: 18px;&quot; face=&quot;Times New Roman&quot;&gt;&lt;b&gt;Sleep&lt;/b&gt;&lt;/font&gt;" style="whiteSpace=wrap;html=1;container=0;rounded=0;strokeColor=default;fontFamily=Helvetica;fontSize=12;fontColor=default;fillColor=default;" vertex="1" parent="1">
          <mxGeometry x="769.5200000000001" y="408" width="109.09" height="34.29" as="geometry" />
        </mxCell>
      </root>
    </mxGraphModel>
  </diagram>
</mxfile>
